<?xml version="1.0" encoding="UTF-8" standalone="no"?>
<!DOCTYPE svg PUBLIC "-//W3C//DTD SVG 1.1//EN" "http://www.w3.org/Graphics/SVG/1.1/DTD/svg11.dtd">
<svg width="100%" height="100%" viewBox="0 0 665 449" version="1.1" xmlns="http://www.w3.org/2000/svg" xmlns:xlink="http://www.w3.org/1999/xlink" xml:space="preserve" xmlns:serif="http://www.serif.com/" style="fill-rule:evenodd;clip-rule:evenodd;stroke-linecap:round;stroke-linejoin:round;stroke-miterlimit:1.5;">
    <g transform="matrix(0.666667,0,0,0.666667,0,0)">
        <g transform="matrix(1,0,0,1,-384.651,-86.234)">
            <g transform="matrix(1.20641,0,0,1,469.855,27.9535)">
                <rect x="194.635" y="207.681" width="158.309" height="105.173" style="fill:rgb(254,179,212);"/>
            </g>
            <g transform="matrix(1.56514,0,0,1.56514,490.212,-607.375)">
                <g transform="matrix(24,0,0,24,240.515,578.898)">
                </g>
                <text x="151.218px" y="578.898px" style="font-family:'DINAlternate-Bold', 'DIN Alternate', sans-serif;font-weight:700;font-size:24px;fill:white;">Appr<tspan x="199.675px 211.675px " y="578.898px 578.898px ">ov</tspan>al</text>
            </g>
        </g>
        <g transform="matrix(1,0,0,1,-71.7347,-268.824)">
            <g transform="matrix(1.1881,0.115707,-0.0969297,0.995291,507.852,189.518)">
                <rect x="194.635" y="207.681" width="158.309" height="105.173" style="fill:rgb(249,221,78);"/>
            </g>
            <g transform="matrix(1.56033,0.122573,-0.122573,1.56033,555.456,-433.103)">
                <g transform="matrix(24,0,0,24,259.664,578.898)">
                </g>
                <text x="151.218px" y="578.898px" style="font-family:'DINAlternate-Bold', 'DIN Alternate', sans-serif;font-weight:700;font-size:24px;fill:white;">Pr<tspan x="174.351px 186.351px " y="578.898px 578.898px ">od</tspan>uction</text>
            </g>
        </g>
        <g transform="matrix(0.964383,-0.264511,0.264511,0.964383,19.6892,38.5764)">
            <g transform="matrix(1.15166,-0.409606,0.335101,0.942182,125.339,563.328)">
                <rect x="194.635" y="207.681" width="158.309" height="105.173" style="fill:rgb(237,95,83);"/>
            </g>
            <g transform="matrix(1.46256,-0.557289,0.557289,1.46256,-74.4569,-31.3963)">
                <g transform="matrix(24,0,0,24,232.781,578.898)">
                </g>
                <text x="151.218px" y="578.898px" style="font-family:'DINAlternate-Bold', 'DIN Alternate', sans-serif;font-weight:700;font-size:24px;fill:white;">Deliv<tspan x="200.789px 212.789px " y="578.898px 578.898px ">er</tspan>y</text>
            </g>
        </g>
        <g transform="matrix(1,0,0,1,-140.772,-78.4359)">
            <g transform="matrix(1.20643,0,0,1,-91.3365,21.1983)">
                <rect x="194.635" y="207.681" width="158.309" height="105.173" style="fill:rgb(254,179,212);"/>
            </g>
            <g transform="matrix(1.56514,0,0,1.56514,-42.4543,-612.673)">
                <g transform="matrix(24,0,0,24,206.695,578.898)">
                </g>
                <text x="151.218px" y="578.898px" style="font-family:'DINAlternate-Bold', 'DIN Alternate', sans-serif;font-weight:700;font-size:24px;fill:white;">Sales</text>
            </g>
        </g>
        <g transform="matrix(1,0,0,1,464.297,-98.328)">
            <g transform="matrix(1.22538,0,0,1,78.3035,206.906)">
                <rect x="194.635" y="207.681" width="158.309" height="105.173" style="fill:rgb(183,224,208);"/>
            </g>
            <g transform="matrix(1.8099,0,0,1.8099,60.4959,-568.349)">
                <g transform="matrix(24,0,0,24,241.441,578.898)">
                </g>
                <text x="151.218px" y="578.898px" style="font-family:'DINAlternate-Bold', 'DIN Alternate', sans-serif;font-weight:700;font-size:24px;fill:white;">Calendar</text>
            </g>
        </g>
        <g transform="matrix(1,0,0,1,-224.495,-618.105)">
            <g transform="matrix(1.22393,0,0,1,468.872,419.014)">
                <rect x="194.635" y="207.681" width="158.309" height="105.173" style="fill:rgb(183,224,208);"/>
            </g>
            <g transform="matrix(2.33725,0,0,2.33725,372.956,-655.797)">
                <g transform="matrix(24,0,0,24,220.476,578.898)">
                </g>
                <text x="151.218px" y="578.898px" style="font-family:'DINAlternate-Bold', 'DIN Alternate', sans-serif;font-weight:700;font-size:24px;fill:white;">Emails</text>
            </g>
        </g>
        <g transform="matrix(1,0,0,1,245.588,-44.9117)">
            <path d="M282.853,252.095L282.853,242.508L378.717,242.508L378.717,233.607L392.412,247.302L378.717,260.996L378.717,252.095L282.853,252.095Z" style="fill:rgb(254,179,212);"/>
        </g>
        <g transform="matrix(-0.0753457,1.78329,-0.999109,-0.0422132,1033.25,-219.077)">
            <path d="M282.853,252.095L282.853,242.508L384.74,242.508L384.74,233.607L392.412,247.302L384.74,260.996L384.74,252.095L282.853,252.095Z" style="fill:rgb(254,179,212);"/>
        </g>
        <g transform="matrix(1,0,0,1,-77.6147,-43.2095)">
            <path d="M282.853,252.095L282.853,242.508L378.717,242.508L378.717,233.607L392.412,247.302L378.717,260.996L378.717,252.095L282.853,252.095Z" style="fill:rgb(254,179,212);"/>
        </g>
        <g transform="matrix(1,0,0,1,-213.063,-327.331)">
            <g transform="matrix(1.22393,0,0,1,468.872,419.014)">
                <rect x="194.635" y="207.681" width="158.309" height="105.173" style="fill:rgb(183,224,208);"/>
            </g>
            <g transform="matrix(1.61025,0,0,1.61025,470.465,-241.144)">
                <g transform="matrix(24,0,0,24,260.953,578.898)">
                </g>
                <text x="151.218px" y="578.898px" style="font-family:'DINAlternate-Bold', 'DIN Alternate', sans-serif;font-weight:700;font-size:24px;fill:white;">Customers</text>
            </g>
        </g>
        <g transform="matrix(1,0,0,1,484.379,-496.418)">
            <circle cx="191.052" cy="605.89" r="29.904" style="fill:rgb(249,221,78);"/>
            <circle cx="191.052" cy="605.89" r="29.904" style="fill:rgb(249,221,78);"/>
            <g transform="matrix(2.07984,0,0,1.78837,-197.047,-446.86)">
                <g transform="matrix(37.5634,0,0,37.5634,191.615,602.383)">
                </g>
                <text x="181.931px" y="602.383px" style="font-family:'DINAlternate-Bold', 'DIN Alternate', sans-serif;font-weight:700;font-size:37.563px;fill:rgb(221,124,93);">!</text>
            </g>
        </g>
        <g transform="matrix(1,0,0,1,491.888,-210.314)">
            <circle cx="191.052" cy="605.89" r="29.904" style="fill:rgb(249,221,78);"/>
            <circle cx="191.052" cy="605.89" r="29.904" style="fill:rgb(249,221,78);"/>
            <g transform="matrix(2.07984,0,0,1.78837,-197.047,-446.86)">
                <g transform="matrix(37.5634,0,0,37.5634,191.615,602.383)">
                </g>
                <text x="181.931px" y="602.383px" style="font-family:'DINAlternate-Bold', 'DIN Alternate', sans-serif;font-weight:700;font-size:37.563px;fill:rgb(221,124,93);">!</text>
            </g>
        </g>
        <g transform="matrix(1,0,0,1,772.608,-188.533)">
            <circle cx="191.052" cy="605.89" r="29.904" style="fill:rgb(249,221,78);"/>
            <circle cx="191.052" cy="605.89" r="29.904" style="fill:rgb(249,221,78);"/>
            <g transform="matrix(2.07984,0,0,1.78837,-197.047,-446.86)">
                <g transform="matrix(37.5634,0,0,37.5634,191.615,602.383)">
                </g>
                <text x="181.931px" y="602.383px" style="font-family:'DINAlternate-Bold', 'DIN Alternate', sans-serif;font-weight:700;font-size:37.563px;fill:rgb(221,124,93);">!</text>
            </g>
        </g>
        <g transform="matrix(1,0,0,1,439.611,-352.02)">
            <g transform="matrix(1.22538,0,0,1,78.3035,206.906)">
                <rect x="194.635" y="207.681" width="158.309" height="105.173" style="fill:rgb(183,224,208);"/>
            </g>
            <g transform="matrix(1.8099,0,0,1.8099,60.4959,-568.349)">
                <g transform="matrix(24,0,0,24,242.695,578.898)">
                </g>
                <text x="151.218px" y="578.898px" style="font-family:'DINAlternate-Bold', 'DIN Alternate', sans-serif;font-weight:700;font-size:24px;fill:white;">Meetings</text>
            </g>
        </g>
        <g transform="matrix(1,0,0,1,747.922,-442.224)">
            <circle cx="191.052" cy="605.89" r="29.904" style="fill:rgb(249,221,78);"/>
            <circle cx="191.052" cy="605.89" r="29.904" style="fill:rgb(249,221,78);"/>
            <g transform="matrix(2.07984,0,0,1.78837,-197.047,-446.86)">
                <g transform="matrix(37.5634,0,0,37.5634,191.615,602.383)">
                </g>
                <text x="181.931px" y="602.383px" style="font-family:'DINAlternate-Bold', 'DIN Alternate', sans-serif;font-weight:700;font-size:37.563px;fill:rgb(221,124,93);">!</text>
            </g>
        </g>
        <g transform="matrix(0.696388,-0.717666,0.717666,0.696388,-76.8343,569.615)">
            <path d="M666.112,294.815L666.112,290.219L709.655,290.219L709.655,282.459L719.713,292.517L709.655,302.575L709.655,294.815L666.112,294.815Z" style="fill:none;stroke:rgb(225,0,0);stroke-width:1.9px;stroke-dasharray:1.9,1.9;"/>
        </g>
        <g transform="matrix(-0.580199,-0.814475,0.814475,-0.580199,1007.63,1034.02)">
            <path d="M666.112,294.815L666.112,290.219L709.655,290.219L709.655,282.459L719.713,292.517L709.655,302.575L709.655,294.815L666.112,294.815Z" style="fill:none;stroke:rgb(225,0,0);stroke-width:1.9px;stroke-dasharray:1.9,1.9;"/>
        </g>
        <g transform="matrix(-0.469364,0.457043,-0.69764,-0.716448,1379.42,46.0379)">
            <path d="M666.112,294.815L666.112,290.219L704.361,290.219L704.361,282.459L719.713,292.517L704.361,302.575L704.361,294.815L666.112,294.815Z" style="fill:none;stroke:rgb(225,0,0);stroke-width:2.25px;stroke-dasharray:2.25,2.25;"/>
        </g>
        <g transform="matrix(0.668019,0.744145,-0.744145,0.668019,383.889,-582.553)">
            <path d="M666.112,294.815L666.112,290.219L709.655,290.219L709.655,282.459L719.713,292.517L709.655,302.575L709.655,294.815L666.112,294.815Z" style="fill:none;stroke:rgb(225,0,0);stroke-width:1.9px;stroke-dasharray:1.9,1.9;"/>
        </g>
        <g id="Artboard2" transform="matrix(1,0,0,1,-9.88166,-10.7838)">
            <rect x="9.882" y="10.784" width="997.157" height="673.345" style="fill:none;"/>
        </g>
    </g>
</svg>
