<?xml version="1.0" encoding="UTF-8" standalone="no"?>
<!DOCTYPE svg PUBLIC "-//W3C//DTD SVG 1.1//EN" "http://www.w3.org/Graphics/SVG/1.1/DTD/svg11.dtd">
<svg width="100%" height="100%" viewBox="0 0 674 467" version="1.1" xmlns="http://www.w3.org/2000/svg" xmlns:xlink="http://www.w3.org/1999/xlink" xml:space="preserve" xmlns:serif="http://www.serif.com/" style="fill-rule:evenodd;clip-rule:evenodd;stroke-linejoin:round;stroke-miterlimit:2;">
    <g transform="matrix(0.666667,0,0,0.666667,0,0)">
        <g id="Artboard1" transform="matrix(1,0,0,1,-70.1437,-41.2996)">
            <rect x="70.144" y="41.3" width="1009.77" height="700.254" style="fill:none;"/>
            <g transform="matrix(1,0,0,1,-305.507,-34.9344)">
                <g transform="matrix(1.20641,0,0,1,469.855,27.9535)">
                    <rect x="194.635" y="207.681" width="158.309" height="105.173" style="fill:rgb(254,179,212);"/>
                </g>
                <g transform="matrix(1.56514,0,0,1.56514,490.212,-607.375)">
                    <g transform="matrix(24,0,0,24,151.218,578.898)">
                        <path d="M0.201,-0.255L0.304,-0.566L0.306,-0.566L0.409,-0.255L0.201,-0.255ZM0.495,-0L0.609,-0L0.35,-0.712L0.26,-0.712L0.001,-0L0.115,-0L0.17,-0.159L0.44,-0.159L0.495,-0Z" style="fill:white;fill-rule:nonzero;"/>
                    </g>
                    <g transform="matrix(24,0,0,24,165.855,578.898)">
                        <path d="M0.066,0.205L0.168,0.205L0.168,-0.054C0.187,-0.036 0.207,-0.022 0.229,-0.011C0.25,0 0.273,0.006 0.299,0.006C0.33,0.005 0.357,-0.001 0.38,-0.013C0.403,-0.025 0.421,-0.041 0.435,-0.06C0.449,-0.077 0.459,-0.098 0.464,-0.124C0.469,-0.15 0.471,-0.193 0.471,-0.253C0.471,-0.314 0.469,-0.358 0.464,-0.384C0.459,-0.41 0.449,-0.431 0.435,-0.447C0.406,-0.489 0.361,-0.512 0.299,-0.513C0.245,-0.512 0.202,-0.492 0.168,-0.454L0.168,-0.507L0.066,-0.507L0.066,0.205ZM0.268,-0.096C0.245,-0.096 0.227,-0.101 0.214,-0.111C0.2,-0.12 0.19,-0.133 0.183,-0.148C0.177,-0.163 0.173,-0.18 0.171,-0.199C0.169,-0.217 0.168,-0.235 0.168,-0.253C0.168,-0.272 0.169,-0.291 0.171,-0.31C0.173,-0.328 0.177,-0.345 0.183,-0.36C0.19,-0.375 0.2,-0.388 0.214,-0.397C0.227,-0.406 0.245,-0.411 0.268,-0.411C0.292,-0.411 0.311,-0.407 0.325,-0.399C0.339,-0.39 0.349,-0.378 0.355,-0.363C0.361,-0.348 0.366,-0.331 0.368,-0.312C0.369,-0.293 0.369,-0.273 0.369,-0.253C0.369,-0.234 0.369,-0.215 0.368,-0.197C0.366,-0.178 0.361,-0.161 0.355,-0.146C0.349,-0.131 0.339,-0.119 0.325,-0.11C0.311,-0.101 0.292,-0.096 0.268,-0.096Z" style="fill:white;fill-rule:nonzero;"/>
                    </g>
                    <g transform="matrix(24,0,0,24,178.312,578.898)">
                        <path d="M0.066,0.205L0.168,0.205L0.168,-0.054C0.187,-0.036 0.207,-0.022 0.229,-0.011C0.25,0 0.273,0.006 0.299,0.006C0.33,0.005 0.357,-0.001 0.38,-0.013C0.403,-0.025 0.421,-0.041 0.435,-0.06C0.449,-0.077 0.459,-0.098 0.464,-0.124C0.469,-0.15 0.471,-0.193 0.471,-0.253C0.471,-0.314 0.469,-0.358 0.464,-0.384C0.459,-0.41 0.449,-0.431 0.435,-0.447C0.406,-0.489 0.361,-0.512 0.299,-0.513C0.245,-0.512 0.202,-0.492 0.168,-0.454L0.168,-0.507L0.066,-0.507L0.066,0.205ZM0.268,-0.096C0.245,-0.096 0.227,-0.101 0.214,-0.111C0.2,-0.12 0.19,-0.133 0.183,-0.148C0.177,-0.163 0.173,-0.18 0.171,-0.199C0.169,-0.217 0.168,-0.235 0.168,-0.253C0.168,-0.272 0.169,-0.291 0.171,-0.31C0.173,-0.328 0.177,-0.345 0.183,-0.36C0.19,-0.375 0.2,-0.388 0.214,-0.397C0.227,-0.406 0.245,-0.411 0.268,-0.411C0.292,-0.411 0.311,-0.407 0.325,-0.399C0.339,-0.39 0.349,-0.378 0.355,-0.363C0.361,-0.348 0.366,-0.331 0.368,-0.312C0.369,-0.293 0.369,-0.273 0.369,-0.253C0.369,-0.234 0.369,-0.215 0.368,-0.197C0.366,-0.178 0.361,-0.161 0.355,-0.146C0.349,-0.131 0.339,-0.119 0.325,-0.11C0.311,-0.101 0.292,-0.096 0.268,-0.096Z" style="fill:white;fill-rule:nonzero;"/>
                    </g>
                    <g transform="matrix(24,0,0,24,190.769,578.898)">
                        <path d="M0.066,-0L0.168,-0L0.168,-0.305C0.169,-0.342 0.179,-0.369 0.2,-0.386C0.219,-0.403 0.241,-0.411 0.267,-0.411C0.29,-0.411 0.313,-0.403 0.334,-0.386L0.408,-0.474C0.378,-0.5 0.342,-0.513 0.302,-0.513C0.247,-0.513 0.203,-0.493 0.17,-0.453L0.168,-0.453L0.168,-0.507L0.066,-0.507L0.066,-0Z" style="fill:white;fill-rule:nonzero;"/>
                    </g>
                    <g transform="matrix(24,0,0,24,199.675,578.898)">
                        <path d="M0.041,-0.254C0.041,-0.201 0.045,-0.16 0.054,-0.132C0.063,-0.104 0.077,-0.08 0.096,-0.059C0.11,-0.043 0.13,-0.029 0.155,-0.016C0.18,-0.002 0.211,0.005 0.25,0.006C0.29,0.005 0.322,-0.002 0.347,-0.016C0.361,-0.022 0.371,-0.029 0.38,-0.037C0.389,-0.044 0.397,-0.052 0.404,-0.059C0.424,-0.08 0.438,-0.104 0.447,-0.132C0.455,-0.16 0.459,-0.201 0.459,-0.254C0.459,-0.307 0.455,-0.348 0.447,-0.377C0.438,-0.405 0.424,-0.429 0.404,-0.448C0.39,-0.465 0.372,-0.48 0.347,-0.493C0.322,-0.506 0.29,-0.513 0.25,-0.513C0.211,-0.513 0.18,-0.506 0.155,-0.493C0.13,-0.48 0.11,-0.465 0.096,-0.448C0.077,-0.429 0.063,-0.405 0.054,-0.377C0.045,-0.348 0.041,-0.307 0.041,-0.254ZM0.357,-0.253C0.357,-0.218 0.355,-0.193 0.352,-0.177C0.349,-0.16 0.342,-0.146 0.332,-0.133C0.325,-0.123 0.313,-0.114 0.299,-0.107C0.285,-0.1 0.269,-0.096 0.25,-0.096C0.233,-0.096 0.217,-0.1 0.202,-0.107C0.188,-0.114 0.177,-0.123 0.168,-0.133C0.159,-0.146 0.153,-0.16 0.149,-0.177C0.145,-0.193 0.143,-0.219 0.143,-0.254C0.143,-0.289 0.145,-0.315 0.149,-0.332C0.153,-0.348 0.159,-0.362 0.168,-0.374C0.177,-0.385 0.188,-0.394 0.202,-0.401C0.217,-0.408 0.233,-0.411 0.25,-0.411C0.269,-0.411 0.285,-0.408 0.299,-0.401C0.313,-0.394 0.325,-0.385 0.332,-0.374C0.342,-0.362 0.349,-0.348 0.352,-0.332C0.355,-0.315 0.357,-0.289 0.357,-0.253Z" style="fill:white;fill-rule:nonzero;"/>
                    </g>
                    <g transform="matrix(24,0,0,24,211.675,578.898)">
                        <path d="M0.18,-0L0.264,-0L0.45,-0.507L0.342,-0.507L0.223,-0.152L0.221,-0.152L0.102,-0.507L-0.006,-0.507L0.18,-0Z" style="fill:white;fill-rule:nonzero;"/>
                    </g>
                    <g transform="matrix(24,0,0,24,222.328,578.898)">
                        <path d="M0.332,-0L0.434,-0L0.434,-0.346C0.433,-0.408 0.414,-0.452 0.376,-0.477C0.338,-0.502 0.287,-0.514 0.223,-0.513C0.148,-0.514 0.09,-0.49 0.052,-0.439L0.132,-0.378C0.141,-0.393 0.153,-0.403 0.168,-0.409C0.183,-0.414 0.203,-0.417 0.228,-0.417C0.298,-0.418 0.333,-0.397 0.332,-0.352L0.332,-0.299L0.191,-0.299C0.137,-0.298 0.096,-0.284 0.068,-0.255C0.04,-0.227 0.026,-0.192 0.026,-0.149C0.026,-0.104 0.042,-0.068 0.074,-0.039C0.105,-0.01 0.148,0.005 0.205,0.006C0.24,0.006 0.267,0.002 0.286,-0.007C0.306,-0.015 0.321,-0.028 0.33,-0.045L0.332,-0.045L0.332,-0ZM0.332,-0.178C0.332,-0.14 0.324,-0.116 0.308,-0.105C0.291,-0.094 0.26,-0.089 0.218,-0.09C0.184,-0.09 0.16,-0.097 0.145,-0.11C0.13,-0.122 0.122,-0.137 0.122,-0.154C0.121,-0.193 0.151,-0.214 0.21,-0.215L0.332,-0.215L0.332,-0.178Z" style="fill:white;fill-rule:nonzero;"/>
                    </g>
                    <g transform="matrix(24,0,0,24,234.328,578.898)">
                        <path d="M0.066,-0.123C0.066,-0.078 0.079,-0.047 0.104,-0.028C0.128,-0.009 0.159,-0 0.196,-0L0.241,-0L0.241,-0.096L0.206,-0.096C0.181,-0.096 0.168,-0.108 0.168,-0.131L0.168,-0.712L0.066,-0.712L0.066,-0.123Z" style="fill:white;fill-rule:nonzero;"/>
                    </g>
                </g>
            </g>
            <g transform="matrix(1,0,0,1,7.40893,-217.525)">
                <g transform="matrix(1.1881,0.115707,-0.0969297,0.995291,507.852,189.518)">
                    <rect x="194.635" y="207.681" width="158.309" height="105.173" style="fill:rgb(249,221,78);"/>
                </g>
                <g transform="matrix(1.56033,0.122573,-0.122573,1.56033,555.456,-433.103)">
                    <g transform="matrix(24,0,0,24,151.218,578.898)">
                        <path d="M0.183,-0.61L0.339,-0.61C0.368,-0.611 0.394,-0.604 0.416,-0.59C0.431,-0.581 0.442,-0.57 0.45,-0.555C0.458,-0.539 0.462,-0.519 0.462,-0.495C0.462,-0.466 0.452,-0.44 0.433,-0.417C0.413,-0.393 0.383,-0.381 0.343,-0.38L0.183,-0.38L0.183,-0.61ZM0.075,-0L0.183,-0L0.183,-0.278L0.347,-0.278C0.42,-0.279 0.476,-0.303 0.514,-0.348C0.551,-0.391 0.57,-0.439 0.57,-0.492C0.57,-0.531 0.563,-0.565 0.548,-0.594C0.534,-0.623 0.516,-0.646 0.493,-0.662C0.466,-0.683 0.44,-0.697 0.414,-0.704C0.388,-0.709 0.361,-0.712 0.333,-0.712L0.075,-0.712L0.075,-0Z" style="fill:white;fill-rule:nonzero;"/>
                    </g>
                    <g transform="matrix(24,0,0,24,165.445,578.898)">
                        <path d="M0.066,-0L0.168,-0L0.168,-0.305C0.169,-0.342 0.179,-0.369 0.2,-0.386C0.219,-0.403 0.241,-0.411 0.267,-0.411C0.29,-0.411 0.313,-0.403 0.334,-0.386L0.408,-0.474C0.378,-0.5 0.342,-0.513 0.302,-0.513C0.247,-0.513 0.203,-0.493 0.17,-0.453L0.168,-0.453L0.168,-0.507L0.066,-0.507L0.066,-0Z" style="fill:white;fill-rule:nonzero;"/>
                    </g>
                    <g transform="matrix(24,0,0,24,174.351,578.898)">
                        <path d="M0.041,-0.254C0.041,-0.201 0.045,-0.16 0.054,-0.132C0.063,-0.104 0.077,-0.08 0.096,-0.059C0.11,-0.043 0.13,-0.029 0.155,-0.016C0.18,-0.002 0.211,0.005 0.25,0.006C0.29,0.005 0.322,-0.002 0.347,-0.016C0.361,-0.022 0.371,-0.029 0.38,-0.037C0.389,-0.044 0.397,-0.052 0.404,-0.059C0.424,-0.08 0.438,-0.104 0.447,-0.132C0.455,-0.16 0.459,-0.201 0.459,-0.254C0.459,-0.307 0.455,-0.348 0.447,-0.377C0.438,-0.405 0.424,-0.429 0.404,-0.448C0.39,-0.465 0.372,-0.48 0.347,-0.493C0.322,-0.506 0.29,-0.513 0.25,-0.513C0.211,-0.513 0.18,-0.506 0.155,-0.493C0.13,-0.48 0.11,-0.465 0.096,-0.448C0.077,-0.429 0.063,-0.405 0.054,-0.377C0.045,-0.348 0.041,-0.307 0.041,-0.254ZM0.357,-0.253C0.357,-0.218 0.355,-0.193 0.352,-0.177C0.349,-0.16 0.342,-0.146 0.332,-0.133C0.325,-0.123 0.313,-0.114 0.299,-0.107C0.285,-0.1 0.269,-0.096 0.25,-0.096C0.233,-0.096 0.217,-0.1 0.202,-0.107C0.188,-0.114 0.177,-0.123 0.168,-0.133C0.159,-0.146 0.153,-0.16 0.149,-0.177C0.145,-0.193 0.143,-0.219 0.143,-0.254C0.143,-0.289 0.145,-0.315 0.149,-0.332C0.153,-0.348 0.159,-0.362 0.168,-0.374C0.177,-0.385 0.188,-0.394 0.202,-0.401C0.217,-0.408 0.233,-0.411 0.25,-0.411C0.269,-0.411 0.285,-0.408 0.299,-0.401C0.313,-0.394 0.325,-0.385 0.332,-0.374C0.342,-0.362 0.349,-0.348 0.352,-0.332C0.355,-0.315 0.357,-0.289 0.357,-0.253Z" style="fill:white;fill-rule:nonzero;"/>
                    </g>
                    <g transform="matrix(24,0,0,24,186.351,578.898)">
                        <path d="M0.369,-0.053L0.369,-0L0.471,-0L0.471,-0.712L0.369,-0.712L0.369,-0.453C0.35,-0.471 0.331,-0.486 0.31,-0.497C0.288,-0.508 0.264,-0.513 0.238,-0.513C0.176,-0.512 0.131,-0.489 0.102,-0.447C0.088,-0.431 0.079,-0.41 0.074,-0.384C0.069,-0.358 0.066,-0.315 0.066,-0.254C0.066,-0.194 0.069,-0.151 0.074,-0.125C0.079,-0.098 0.088,-0.076 0.102,-0.06C0.117,-0.041 0.136,-0.025 0.159,-0.013C0.181,-0.001 0.207,0.005 0.238,0.006C0.292,0.005 0.336,-0.015 0.369,-0.053ZM0.269,-0.411C0.293,-0.411 0.312,-0.406 0.326,-0.397C0.34,-0.388 0.35,-0.375 0.355,-0.36C0.361,-0.345 0.366,-0.328 0.368,-0.31C0.369,-0.292 0.369,-0.273 0.369,-0.254C0.369,-0.236 0.369,-0.218 0.368,-0.199C0.366,-0.18 0.361,-0.163 0.355,-0.148C0.35,-0.133 0.34,-0.12 0.326,-0.111C0.312,-0.101 0.293,-0.096 0.269,-0.096C0.245,-0.096 0.227,-0.101 0.214,-0.11C0.2,-0.119 0.19,-0.131 0.183,-0.146C0.177,-0.161 0.173,-0.179 0.171,-0.198C0.169,-0.216 0.168,-0.235 0.168,-0.254C0.168,-0.274 0.169,-0.294 0.171,-0.313C0.173,-0.331 0.177,-0.347 0.183,-0.363C0.19,-0.378 0.2,-0.39 0.214,-0.399C0.227,-0.407 0.245,-0.411 0.269,-0.411Z" style="fill:white;fill-rule:nonzero;"/>
                    </g>
                    <g transform="matrix(24,0,0,24,198.808,578.898)">
                        <path d="M0.066,-0.17C0.067,-0.113 0.085,-0.069 0.122,-0.04C0.156,-0.01 0.194,0.005 0.236,0.006C0.29,0.006 0.334,-0.014 0.367,-0.054L0.369,-0.054L0.369,-0L0.471,-0L0.471,-0.507L0.369,-0.507L0.369,-0.205C0.369,-0.171 0.36,-0.144 0.341,-0.125C0.322,-0.106 0.298,-0.096 0.269,-0.096C0.24,-0.096 0.216,-0.106 0.197,-0.125C0.178,-0.144 0.168,-0.171 0.168,-0.205L0.168,-0.507L0.066,-0.507L0.066,-0.17Z" style="fill:white;fill-rule:nonzero;"/>
                    </g>
                    <g transform="matrix(24,0,0,24,211.699,578.898)">
                        <path d="M0.364,-0.149C0.338,-0.114 0.304,-0.097 0.261,-0.096C0.174,-0.095 0.13,-0.147 0.129,-0.253C0.13,-0.36 0.174,-0.412 0.261,-0.411C0.304,-0.41 0.338,-0.392 0.364,-0.358L0.439,-0.425C0.417,-0.451 0.391,-0.473 0.361,-0.489C0.331,-0.504 0.296,-0.513 0.257,-0.513C0.197,-0.514 0.144,-0.494 0.099,-0.453C0.052,-0.412 0.028,-0.345 0.027,-0.253C0.028,-0.162 0.052,-0.096 0.099,-0.055C0.144,-0.014 0.197,0.006 0.257,0.006C0.296,0.005 0.331,-0.003 0.361,-0.02C0.391,-0.036 0.417,-0.057 0.439,-0.082L0.364,-0.149Z" style="fill:white;fill-rule:nonzero;"/>
                    </g>
                    <g transform="matrix(24,0,0,24,222.351,578.898)">
                        <path d="M0.072,-0.507L0.021,-0.507L0.021,-0.429L0.072,-0.429L0.072,-0.125C0.072,-0.085 0.083,-0.054 0.107,-0.033C0.13,-0.011 0.159,-0 0.195,-0L0.248,-0L0.248,-0.096L0.21,-0.096C0.185,-0.096 0.173,-0.108 0.174,-0.134L0.174,-0.429L0.248,-0.429L0.248,-0.507L0.174,-0.507L0.174,-0.661L0.072,-0.661L0.072,-0.507Z" style="fill:white;fill-rule:nonzero;"/>
                    </g>
                    <g transform="matrix(24,0,0,24,229.019,578.898)">
                        <path d="M0.069,-0L0.171,-0L0.171,-0.507L0.069,-0.507L0.069,-0ZM0.069,-0.61L0.171,-0.61L0.171,-0.712L0.069,-0.712L0.069,-0.61Z" style="fill:white;fill-rule:nonzero;"/>
                    </g>
                    <g transform="matrix(24,0,0,24,234.773,578.898)">
                        <path d="M0.041,-0.254C0.041,-0.201 0.045,-0.16 0.054,-0.132C0.063,-0.104 0.077,-0.08 0.096,-0.059C0.11,-0.043 0.13,-0.029 0.155,-0.016C0.18,-0.002 0.211,0.005 0.25,0.006C0.29,0.005 0.322,-0.002 0.347,-0.016C0.361,-0.022 0.371,-0.029 0.38,-0.037C0.389,-0.044 0.397,-0.052 0.404,-0.059C0.424,-0.08 0.438,-0.104 0.447,-0.132C0.455,-0.16 0.459,-0.201 0.459,-0.254C0.459,-0.307 0.455,-0.348 0.447,-0.377C0.438,-0.405 0.424,-0.429 0.404,-0.448C0.39,-0.465 0.372,-0.48 0.347,-0.493C0.322,-0.506 0.29,-0.513 0.25,-0.513C0.211,-0.513 0.18,-0.506 0.155,-0.493C0.13,-0.48 0.11,-0.465 0.096,-0.448C0.077,-0.429 0.063,-0.405 0.054,-0.377C0.045,-0.348 0.041,-0.307 0.041,-0.254ZM0.357,-0.253C0.357,-0.218 0.355,-0.193 0.352,-0.177C0.349,-0.16 0.342,-0.146 0.332,-0.133C0.325,-0.123 0.313,-0.114 0.299,-0.107C0.285,-0.1 0.269,-0.096 0.25,-0.096C0.233,-0.096 0.217,-0.1 0.202,-0.107C0.188,-0.114 0.177,-0.123 0.168,-0.133C0.159,-0.146 0.153,-0.16 0.149,-0.177C0.145,-0.193 0.143,-0.219 0.143,-0.254C0.143,-0.289 0.145,-0.315 0.149,-0.332C0.153,-0.348 0.159,-0.362 0.168,-0.374C0.177,-0.385 0.188,-0.394 0.202,-0.401C0.217,-0.408 0.233,-0.411 0.25,-0.411C0.269,-0.411 0.285,-0.408 0.299,-0.401C0.313,-0.394 0.325,-0.385 0.332,-0.374C0.342,-0.362 0.349,-0.348 0.352,-0.332C0.355,-0.315 0.357,-0.289 0.357,-0.253Z" style="fill:white;fill-rule:nonzero;"/>
                    </g>
                    <g transform="matrix(24,0,0,24,246.773,578.898)">
                        <path d="M0.066,-0L0.168,-0L0.168,-0.302C0.168,-0.337 0.178,-0.364 0.197,-0.383C0.216,-0.402 0.24,-0.411 0.269,-0.411C0.298,-0.411 0.322,-0.402 0.341,-0.383C0.36,-0.364 0.369,-0.337 0.369,-0.302L0.369,-0L0.471,-0L0.471,-0.337C0.47,-0.395 0.451,-0.439 0.417,-0.469C0.382,-0.498 0.344,-0.513 0.302,-0.513C0.247,-0.513 0.203,-0.493 0.17,-0.453L0.168,-0.453L0.168,-0.507L0.066,-0.507L0.066,-0Z" style="fill:white;fill-rule:nonzero;"/>
                    </g>
                </g>
            </g>
            <g transform="matrix(0.964383,-0.264511,0.264511,0.964383,129.768,108.508)">
                <g transform="matrix(1.15166,-0.409606,0.335101,0.942182,125.339,563.328)">
                    <rect x="194.635" y="207.681" width="158.309" height="105.173" style="fill:rgb(237,95,83);"/>
                </g>
                <g transform="matrix(1.46256,-0.557289,0.557289,1.46256,-74.4569,-31.3963)">
                    <g transform="matrix(24,0,0,24,151.218,578.898)">
                        <path d="M0.075,-0L0.317,-0C0.37,-0 0.415,-0.012 0.452,-0.035C0.489,-0.057 0.518,-0.085 0.539,-0.118C0.547,-0.131 0.554,-0.143 0.559,-0.155C0.564,-0.167 0.568,-0.181 0.571,-0.196C0.576,-0.226 0.579,-0.279 0.579,-0.356C0.579,-0.428 0.577,-0.479 0.574,-0.508C0.569,-0.537 0.558,-0.565 0.541,-0.592C0.493,-0.671 0.421,-0.711 0.324,-0.712L0.075,-0.712L0.075,-0ZM0.183,-0.61L0.312,-0.61C0.367,-0.611 0.409,-0.591 0.439,-0.55C0.454,-0.533 0.463,-0.512 0.467,-0.485C0.47,-0.458 0.471,-0.414 0.471,-0.352C0.471,-0.289 0.47,-0.245 0.467,-0.222C0.464,-0.199 0.456,-0.179 0.444,-0.164C0.417,-0.123 0.373,-0.102 0.312,-0.102L0.183,-0.102L0.183,-0.61Z" style="fill:white;fill-rule:nonzero;"/>
                    </g>
                    <g transform="matrix(24,0,0,24,166.336,578.898)">
                        <path d="M0.459,-0.215L0.459,-0.299C0.458,-0.366 0.438,-0.418 0.397,-0.456C0.357,-0.493 0.308,-0.513 0.25,-0.513C0.226,-0.513 0.201,-0.509 0.177,-0.5C0.152,-0.491 0.129,-0.477 0.109,-0.457C0.089,-0.438 0.073,-0.411 0.06,-0.377C0.047,-0.344 0.041,-0.302 0.041,-0.252C0.041,-0.2 0.048,-0.158 0.063,-0.125C0.076,-0.091 0.094,-0.065 0.115,-0.046C0.126,-0.037 0.138,-0.029 0.151,-0.023C0.163,-0.016 0.175,-0.01 0.188,-0.006C0.213,0.002 0.239,0.006 0.266,0.006C0.336,0.007 0.397,-0.021 0.449,-0.076L0.375,-0.139C0.342,-0.106 0.306,-0.09 0.264,-0.09C0.229,-0.09 0.2,-0.101 0.178,-0.122C0.155,-0.143 0.143,-0.174 0.143,-0.215L0.459,-0.215ZM0.143,-0.299C0.145,-0.338 0.156,-0.368 0.175,-0.388C0.194,-0.407 0.219,-0.417 0.25,-0.417C0.281,-0.417 0.306,-0.407 0.325,-0.388C0.345,-0.368 0.356,-0.338 0.357,-0.299L0.143,-0.299Z" style="fill:white;fill-rule:nonzero;"/>
                    </g>
                    <g transform="matrix(24,0,0,24,178.336,578.898)">
                        <path d="M0.066,-0.123C0.066,-0.078 0.079,-0.047 0.104,-0.028C0.128,-0.009 0.159,-0 0.196,-0L0.241,-0L0.241,-0.096L0.206,-0.096C0.181,-0.096 0.168,-0.108 0.168,-0.131L0.168,-0.712L0.066,-0.712L0.066,-0.123Z" style="fill:white;fill-rule:nonzero;"/>
                    </g>
                    <g transform="matrix(24,0,0,24,184.523,578.898)">
                        <path d="M0.069,-0L0.171,-0L0.171,-0.507L0.069,-0.507L0.069,-0ZM0.069,-0.61L0.171,-0.61L0.171,-0.712L0.069,-0.712L0.069,-0.61Z" style="fill:white;fill-rule:nonzero;"/>
                    </g>
                    <g transform="matrix(24,0,0,24,190.277,578.898)">
                        <path d="M0.18,-0L0.264,-0L0.45,-0.507L0.342,-0.507L0.223,-0.152L0.221,-0.152L0.102,-0.507L-0.006,-0.507L0.18,-0Z" style="fill:white;fill-rule:nonzero;"/>
                    </g>
                    <g transform="matrix(24,0,0,24,200.789,578.898)">
                        <path d="M0.459,-0.215L0.459,-0.299C0.458,-0.366 0.438,-0.418 0.397,-0.456C0.357,-0.493 0.308,-0.513 0.25,-0.513C0.226,-0.513 0.201,-0.509 0.177,-0.5C0.152,-0.491 0.129,-0.477 0.109,-0.457C0.089,-0.438 0.073,-0.411 0.06,-0.377C0.047,-0.344 0.041,-0.302 0.041,-0.252C0.041,-0.2 0.048,-0.158 0.063,-0.125C0.076,-0.091 0.094,-0.065 0.115,-0.046C0.126,-0.037 0.138,-0.029 0.151,-0.023C0.163,-0.016 0.175,-0.01 0.188,-0.006C0.213,0.002 0.239,0.006 0.266,0.006C0.336,0.007 0.397,-0.021 0.449,-0.076L0.375,-0.139C0.342,-0.106 0.306,-0.09 0.264,-0.09C0.229,-0.09 0.2,-0.101 0.178,-0.122C0.155,-0.143 0.143,-0.174 0.143,-0.215L0.459,-0.215ZM0.143,-0.299C0.145,-0.338 0.156,-0.368 0.175,-0.388C0.194,-0.407 0.219,-0.417 0.25,-0.417C0.281,-0.417 0.306,-0.407 0.325,-0.388C0.345,-0.368 0.356,-0.338 0.357,-0.299L0.143,-0.299Z" style="fill:white;fill-rule:nonzero;"/>
                    </g>
                    <g transform="matrix(24,0,0,24,212.789,578.898)">
                        <path d="M0.066,-0L0.168,-0L0.168,-0.305C0.169,-0.342 0.179,-0.369 0.2,-0.386C0.219,-0.403 0.241,-0.411 0.267,-0.411C0.29,-0.411 0.313,-0.403 0.334,-0.386L0.408,-0.474C0.378,-0.5 0.342,-0.513 0.302,-0.513C0.247,-0.513 0.203,-0.493 0.17,-0.453L0.168,-0.453L0.168,-0.507L0.066,-0.507L0.066,-0Z" style="fill:white;fill-rule:nonzero;"/>
                    </g>
                    <g transform="matrix(24,0,0,24,222.129,578.898)">
                        <path d="M0.175,-0.02L0.147,0.065C0.142,0.08 0.134,0.091 0.123,0.098C0.112,0.105 0.099,0.109 0.086,0.109L0.056,0.109L0.056,0.205L0.09,0.205C0.121,0.205 0.15,0.198 0.175,0.184C0.2,0.169 0.219,0.143 0.233,0.105L0.451,-0.507L0.343,-0.507L0.223,-0.152L0.221,-0.152L0.101,-0.507L-0.007,-0.507L0.175,-0.02Z" style="fill:white;fill-rule:nonzero;"/>
                    </g>
                </g>
            </g>
            <g transform="matrix(1,0,0,1,-61.6281,-27.1363)">
                <g transform="matrix(1.20643,0,0,1,-91.3365,21.1983)">
                    <rect x="194.635" y="207.681" width="158.309" height="105.173" style="fill:rgb(254,179,212);"/>
                </g>
                <g transform="matrix(1.56514,0,0,1.56514,-42.4543,-612.673)">
                    <g transform="matrix(24,0,0,24,151.218,578.898)">
                        <path d="M0.084,-0.173L0.013,-0.092C0.089,-0.027 0.18,0.006 0.285,0.006C0.448,0.004 0.532,-0.065 0.535,-0.201C0.535,-0.252 0.519,-0.296 0.488,-0.334C0.456,-0.373 0.407,-0.397 0.34,-0.406C0.306,-0.41 0.279,-0.414 0.26,-0.417C0.225,-0.424 0.199,-0.435 0.183,-0.452C0.167,-0.469 0.159,-0.487 0.159,-0.508C0.16,-0.542 0.172,-0.568 0.195,-0.585C0.217,-0.602 0.245,-0.61 0.278,-0.61C0.342,-0.609 0.401,-0.59 0.454,-0.555L0.514,-0.644C0.449,-0.691 0.372,-0.716 0.283,-0.718C0.21,-0.717 0.153,-0.698 0.113,-0.66C0.071,-0.622 0.051,-0.572 0.051,-0.51C0.051,-0.458 0.067,-0.414 0.1,-0.378C0.132,-0.343 0.179,-0.32 0.24,-0.31C0.274,-0.305 0.305,-0.301 0.334,-0.297C0.396,-0.286 0.427,-0.254 0.427,-0.201C0.425,-0.136 0.379,-0.103 0.286,-0.102C0.208,-0.103 0.141,-0.126 0.084,-0.173Z" style="fill:white;fill-rule:nonzero;"/>
                    </g>
                    <g transform="matrix(24,0,0,24,164.988,578.898)">
                        <path d="M0.332,-0L0.434,-0L0.434,-0.346C0.433,-0.408 0.414,-0.452 0.376,-0.477C0.338,-0.502 0.287,-0.514 0.223,-0.513C0.148,-0.514 0.09,-0.49 0.052,-0.439L0.132,-0.378C0.141,-0.393 0.153,-0.403 0.168,-0.409C0.183,-0.414 0.203,-0.417 0.228,-0.417C0.298,-0.418 0.333,-0.397 0.332,-0.352L0.332,-0.299L0.191,-0.299C0.137,-0.298 0.096,-0.284 0.068,-0.255C0.04,-0.227 0.026,-0.192 0.026,-0.149C0.026,-0.104 0.042,-0.068 0.074,-0.039C0.105,-0.01 0.148,0.005 0.205,0.006C0.24,0.006 0.267,0.002 0.286,-0.007C0.306,-0.015 0.321,-0.028 0.33,-0.045L0.332,-0.045L0.332,-0ZM0.332,-0.178C0.332,-0.14 0.324,-0.116 0.308,-0.105C0.291,-0.094 0.26,-0.089 0.218,-0.09C0.184,-0.09 0.16,-0.097 0.145,-0.11C0.13,-0.122 0.122,-0.137 0.122,-0.154C0.121,-0.193 0.151,-0.214 0.21,-0.215L0.332,-0.215L0.332,-0.178Z" style="fill:white;fill-rule:nonzero;"/>
                    </g>
                    <g transform="matrix(24,0,0,24,176.988,578.898)">
                        <path d="M0.066,-0.123C0.066,-0.078 0.079,-0.047 0.104,-0.028C0.128,-0.009 0.159,-0 0.196,-0L0.241,-0L0.241,-0.096L0.206,-0.096C0.181,-0.096 0.168,-0.108 0.168,-0.131L0.168,-0.712L0.066,-0.712L0.066,-0.123Z" style="fill:white;fill-rule:nonzero;"/>
                    </g>
                    <g transform="matrix(24,0,0,24,183.175,578.898)">
                        <path d="M0.459,-0.215L0.459,-0.299C0.458,-0.366 0.438,-0.418 0.397,-0.456C0.357,-0.493 0.308,-0.513 0.25,-0.513C0.226,-0.513 0.201,-0.509 0.177,-0.5C0.152,-0.491 0.129,-0.477 0.109,-0.457C0.089,-0.438 0.073,-0.411 0.06,-0.377C0.047,-0.344 0.041,-0.302 0.041,-0.252C0.041,-0.2 0.048,-0.158 0.063,-0.125C0.076,-0.091 0.094,-0.065 0.115,-0.046C0.126,-0.037 0.138,-0.029 0.151,-0.023C0.163,-0.016 0.175,-0.01 0.188,-0.006C0.213,0.002 0.239,0.006 0.266,0.006C0.336,0.007 0.397,-0.021 0.449,-0.076L0.375,-0.139C0.342,-0.106 0.306,-0.09 0.264,-0.09C0.229,-0.09 0.2,-0.101 0.178,-0.122C0.155,-0.143 0.143,-0.174 0.143,-0.215L0.459,-0.215ZM0.143,-0.299C0.145,-0.338 0.156,-0.368 0.175,-0.388C0.194,-0.407 0.219,-0.417 0.25,-0.417C0.281,-0.417 0.306,-0.407 0.325,-0.388C0.345,-0.368 0.356,-0.338 0.357,-0.299L0.143,-0.299Z" style="fill:white;fill-rule:nonzero;"/>
                    </g>
                    <g transform="matrix(24,0,0,24,195.175,578.898)">
                        <path d="M0.081,-0.155L0.01,-0.085C0.076,-0.024 0.15,0.006 0.233,0.006C0.294,0.005 0.344,-0.009 0.383,-0.036C0.422,-0.063 0.442,-0.101 0.443,-0.15C0.443,-0.192 0.432,-0.227 0.41,-0.254C0.387,-0.282 0.349,-0.298 0.296,-0.302L0.212,-0.308C0.187,-0.311 0.17,-0.317 0.16,-0.326C0.149,-0.335 0.144,-0.345 0.145,-0.356C0.145,-0.374 0.152,-0.389 0.165,-0.4C0.178,-0.411 0.2,-0.417 0.232,-0.417C0.26,-0.417 0.285,-0.413 0.306,-0.405C0.328,-0.396 0.349,-0.384 0.368,-0.37L0.431,-0.444C0.406,-0.465 0.378,-0.482 0.347,-0.495C0.331,-0.501 0.313,-0.506 0.295,-0.509C0.276,-0.512 0.255,-0.513 0.232,-0.513C0.178,-0.513 0.133,-0.5 0.098,-0.474C0.062,-0.448 0.044,-0.409 0.043,-0.357C0.044,-0.314 0.058,-0.28 0.085,-0.256C0.112,-0.231 0.146,-0.217 0.189,-0.213L0.279,-0.205C0.298,-0.204 0.313,-0.2 0.324,-0.193C0.335,-0.186 0.341,-0.173 0.341,-0.155C0.341,-0.134 0.332,-0.118 0.313,-0.107C0.294,-0.096 0.271,-0.09 0.241,-0.09C0.176,-0.09 0.122,-0.111 0.081,-0.155Z" style="fill:white;fill-rule:nonzero;"/>
                    </g>
                </g>
            </g>
            <g transform="matrix(1,0,0,1,545.277,-27.4484)">
                <g transform="matrix(1.22538,0,0,1,78.3035,206.906)">
                    <rect x="194.635" y="207.681" width="158.309" height="105.173" style="fill:rgb(183,224,208);"/>
                </g>
                <g transform="matrix(1.62692,0,0,1.62692,92.1064,-465.131)">
                    <g transform="matrix(24,0,0,24,151.218,578.898)">
                        <path d="M0.075,-0L0.317,-0C0.37,-0 0.415,-0.012 0.452,-0.035C0.489,-0.057 0.518,-0.085 0.539,-0.118C0.547,-0.131 0.554,-0.143 0.559,-0.155C0.564,-0.167 0.568,-0.181 0.571,-0.196C0.576,-0.226 0.579,-0.279 0.579,-0.356C0.579,-0.428 0.577,-0.479 0.574,-0.508C0.569,-0.537 0.558,-0.565 0.541,-0.592C0.493,-0.671 0.421,-0.711 0.324,-0.712L0.075,-0.712L0.075,-0ZM0.183,-0.61L0.312,-0.61C0.367,-0.611 0.409,-0.591 0.439,-0.55C0.454,-0.533 0.463,-0.512 0.467,-0.485C0.47,-0.458 0.471,-0.414 0.471,-0.352C0.471,-0.289 0.47,-0.245 0.467,-0.222C0.464,-0.199 0.456,-0.179 0.444,-0.164C0.417,-0.123 0.373,-0.102 0.312,-0.102L0.183,-0.102L0.183,-0.61Z" style="fill:white;fill-rule:nonzero;"/>
                    </g>
                    <g transform="matrix(24,0,0,24,166.336,578.898)">
                        <path d="M0.041,-0.254C0.041,-0.201 0.045,-0.16 0.054,-0.132C0.063,-0.104 0.077,-0.08 0.096,-0.059C0.11,-0.043 0.13,-0.029 0.155,-0.016C0.18,-0.002 0.211,0.005 0.25,0.006C0.29,0.005 0.322,-0.002 0.347,-0.016C0.361,-0.022 0.371,-0.029 0.38,-0.037C0.389,-0.044 0.397,-0.052 0.404,-0.059C0.424,-0.08 0.438,-0.104 0.447,-0.132C0.455,-0.16 0.459,-0.201 0.459,-0.254C0.459,-0.307 0.455,-0.348 0.447,-0.377C0.438,-0.405 0.424,-0.429 0.404,-0.448C0.39,-0.465 0.372,-0.48 0.347,-0.493C0.322,-0.506 0.29,-0.513 0.25,-0.513C0.211,-0.513 0.18,-0.506 0.155,-0.493C0.13,-0.48 0.11,-0.465 0.096,-0.448C0.077,-0.429 0.063,-0.405 0.054,-0.377C0.045,-0.348 0.041,-0.307 0.041,-0.254ZM0.357,-0.253C0.357,-0.218 0.355,-0.193 0.352,-0.177C0.349,-0.16 0.342,-0.146 0.332,-0.133C0.325,-0.123 0.313,-0.114 0.299,-0.107C0.285,-0.1 0.269,-0.096 0.25,-0.096C0.233,-0.096 0.217,-0.1 0.202,-0.107C0.188,-0.114 0.177,-0.123 0.168,-0.133C0.159,-0.146 0.153,-0.16 0.149,-0.177C0.145,-0.193 0.143,-0.219 0.143,-0.254C0.143,-0.289 0.145,-0.315 0.149,-0.332C0.153,-0.348 0.159,-0.362 0.168,-0.374C0.177,-0.385 0.188,-0.394 0.202,-0.401C0.217,-0.408 0.233,-0.411 0.25,-0.411C0.269,-0.411 0.285,-0.408 0.299,-0.401C0.313,-0.394 0.325,-0.385 0.332,-0.374C0.342,-0.362 0.349,-0.348 0.352,-0.332C0.355,-0.315 0.357,-0.289 0.357,-0.253Z" style="fill:white;fill-rule:nonzero;"/>
                    </g>
                    <g transform="matrix(24,0,0,24,178.336,578.898)">
                        <path d="M0.364,-0.149C0.338,-0.114 0.304,-0.097 0.261,-0.096C0.174,-0.095 0.13,-0.147 0.129,-0.253C0.13,-0.36 0.174,-0.412 0.261,-0.411C0.304,-0.41 0.338,-0.392 0.364,-0.358L0.439,-0.425C0.417,-0.451 0.391,-0.473 0.361,-0.489C0.331,-0.504 0.296,-0.513 0.257,-0.513C0.197,-0.514 0.144,-0.494 0.099,-0.453C0.052,-0.412 0.028,-0.345 0.027,-0.253C0.028,-0.162 0.052,-0.096 0.099,-0.055C0.144,-0.014 0.197,0.006 0.257,0.006C0.296,0.005 0.331,-0.003 0.361,-0.02C0.391,-0.036 0.417,-0.057 0.439,-0.082L0.364,-0.149Z" style="fill:white;fill-rule:nonzero;"/>
                    </g>
                    <g transform="matrix(24,0,0,24,188.988,578.898)">
                        <path d="M0.066,-0.17C0.067,-0.113 0.085,-0.069 0.122,-0.04C0.156,-0.01 0.194,0.005 0.236,0.006C0.29,0.006 0.334,-0.014 0.367,-0.054L0.369,-0.054L0.369,-0L0.471,-0L0.471,-0.507L0.369,-0.507L0.369,-0.205C0.369,-0.171 0.36,-0.144 0.341,-0.125C0.322,-0.106 0.298,-0.096 0.269,-0.096C0.24,-0.096 0.216,-0.106 0.197,-0.125C0.178,-0.144 0.168,-0.171 0.168,-0.205L0.168,-0.507L0.066,-0.507L0.066,-0.17Z" style="fill:white;fill-rule:nonzero;"/>
                    </g>
                    <g transform="matrix(24,0,0,24,201.879,578.898)">
                        <path d="M0.081,-0.155L0.01,-0.085C0.076,-0.024 0.15,0.006 0.233,0.006C0.294,0.005 0.344,-0.009 0.383,-0.036C0.422,-0.063 0.442,-0.101 0.443,-0.15C0.443,-0.192 0.432,-0.227 0.41,-0.254C0.387,-0.282 0.349,-0.298 0.296,-0.302L0.212,-0.308C0.187,-0.311 0.17,-0.317 0.16,-0.326C0.149,-0.335 0.144,-0.345 0.145,-0.356C0.145,-0.374 0.152,-0.389 0.165,-0.4C0.178,-0.411 0.2,-0.417 0.232,-0.417C0.26,-0.417 0.285,-0.413 0.306,-0.405C0.328,-0.396 0.349,-0.384 0.368,-0.37L0.431,-0.444C0.406,-0.465 0.378,-0.482 0.347,-0.495C0.331,-0.501 0.313,-0.506 0.295,-0.509C0.276,-0.512 0.255,-0.513 0.232,-0.513C0.178,-0.513 0.133,-0.5 0.098,-0.474C0.062,-0.448 0.044,-0.409 0.043,-0.357C0.044,-0.314 0.058,-0.28 0.085,-0.256C0.112,-0.231 0.146,-0.217 0.189,-0.213L0.279,-0.205C0.298,-0.204 0.313,-0.2 0.324,-0.193C0.335,-0.186 0.341,-0.173 0.341,-0.155C0.341,-0.134 0.332,-0.118 0.313,-0.107C0.294,-0.096 0.271,-0.09 0.241,-0.09C0.176,-0.09 0.122,-0.111 0.081,-0.155Z" style="fill:white;fill-rule:nonzero;"/>
                    </g>
                    <g transform="matrix(24,0,0,24,213.398,578.898)">
                        <path d="M0.069,-0L0.171,-0L0.171,-0.507L0.069,-0.507L0.069,-0ZM0.069,-0.61L0.171,-0.61L0.171,-0.712L0.069,-0.712L0.069,-0.61Z" style="fill:white;fill-rule:nonzero;"/>
                    </g>
                    <g transform="matrix(24,0,0,24,219.152,578.898)">
                        <path d="M0.351,-0.053L0.351,-0.001C0.35,0.034 0.34,0.061 0.319,0.08C0.298,0.099 0.27,0.109 0.235,0.109C0.216,0.108 0.198,0.103 0.181,0.094C0.164,0.085 0.149,0.075 0.136,0.063L0.057,0.126C0.106,0.181 0.164,0.21 0.233,0.211C0.293,0.211 0.344,0.193 0.387,0.156C0.43,0.12 0.452,0.064 0.453,-0.012L0.453,-0.507L0.351,-0.507L0.351,-0.453C0.314,-0.493 0.271,-0.513 0.22,-0.513C0.187,-0.513 0.16,-0.506 0.138,-0.494C0.115,-0.481 0.098,-0.467 0.086,-0.451C0.073,-0.435 0.063,-0.415 0.057,-0.391C0.051,-0.367 0.048,-0.321 0.048,-0.253C0.048,-0.186 0.051,-0.141 0.057,-0.117C0.063,-0.093 0.073,-0.073 0.086,-0.056C0.098,-0.042 0.115,-0.028 0.138,-0.015C0.16,-0.002 0.187,0.005 0.22,0.006C0.274,0.005 0.318,-0.015 0.351,-0.053ZM0.15,-0.253C0.15,-0.292 0.151,-0.32 0.154,-0.335C0.156,-0.35 0.161,-0.363 0.17,-0.372C0.177,-0.381 0.187,-0.39 0.201,-0.399C0.215,-0.406 0.231,-0.41 0.251,-0.411C0.271,-0.41 0.287,-0.406 0.301,-0.399C0.314,-0.39 0.324,-0.381 0.331,-0.372C0.34,-0.363 0.345,-0.35 0.348,-0.335C0.35,-0.32 0.351,-0.292 0.351,-0.253C0.351,-0.214 0.35,-0.188 0.348,-0.173C0.345,-0.158 0.34,-0.145 0.331,-0.135C0.324,-0.126 0.314,-0.117 0.301,-0.11C0.287,-0.101 0.271,-0.096 0.251,-0.096C0.231,-0.096 0.215,-0.101 0.201,-0.11C0.187,-0.117 0.177,-0.126 0.17,-0.135C0.161,-0.145 0.156,-0.158 0.154,-0.173C0.151,-0.188 0.15,-0.214 0.15,-0.253Z" style="fill:white;fill-rule:nonzero;"/>
                    </g>
                    <g transform="matrix(24,0,0,24,231.609,578.898)">
                        <path d="M0.066,-0L0.168,-0L0.168,-0.302C0.168,-0.337 0.178,-0.364 0.197,-0.383C0.216,-0.402 0.24,-0.411 0.269,-0.411C0.298,-0.411 0.322,-0.402 0.341,-0.383C0.36,-0.364 0.369,-0.337 0.369,-0.302L0.369,-0L0.471,-0L0.471,-0.337C0.47,-0.395 0.451,-0.439 0.417,-0.469C0.382,-0.498 0.344,-0.513 0.302,-0.513C0.247,-0.513 0.203,-0.493 0.17,-0.453L0.168,-0.453L0.168,-0.507L0.066,-0.507L0.066,-0Z" style="fill:white;fill-rule:nonzero;"/>
                    </g>
                </g>
            </g>
            <g transform="matrix(1,0,0,1,-145.352,-566.805)">
                <g transform="matrix(1.22393,0,0,1,468.872,419.014)">
                    <rect x="194.635" y="207.681" width="158.309" height="105.173" style="fill:rgb(183,224,208);"/>
                </g>
                <g transform="matrix(2.33725,0,0,2.33725,385.214,-655.797)">
                    <g transform="matrix(24,0,0,24,151.218,578.898)">
                        <path d="M0.084,-0.173L0.013,-0.092C0.089,-0.027 0.18,0.006 0.285,0.006C0.448,0.004 0.532,-0.065 0.535,-0.201C0.535,-0.252 0.519,-0.296 0.488,-0.334C0.456,-0.373 0.407,-0.397 0.34,-0.406C0.306,-0.41 0.279,-0.414 0.26,-0.417C0.225,-0.424 0.199,-0.435 0.183,-0.452C0.167,-0.469 0.159,-0.487 0.159,-0.508C0.16,-0.542 0.172,-0.568 0.195,-0.585C0.217,-0.602 0.245,-0.61 0.278,-0.61C0.342,-0.609 0.401,-0.59 0.454,-0.555L0.514,-0.644C0.449,-0.691 0.372,-0.716 0.283,-0.718C0.21,-0.717 0.153,-0.698 0.113,-0.66C0.071,-0.622 0.051,-0.572 0.051,-0.51C0.051,-0.458 0.067,-0.414 0.1,-0.378C0.132,-0.343 0.179,-0.32 0.24,-0.31C0.274,-0.305 0.305,-0.301 0.334,-0.297C0.396,-0.286 0.427,-0.254 0.427,-0.201C0.425,-0.136 0.379,-0.103 0.286,-0.102C0.208,-0.103 0.141,-0.126 0.084,-0.173Z" style="fill:white;fill-rule:nonzero;"/>
                    </g>
                    <g transform="matrix(24,0,0,24,164.988,578.898)">
                        <path d="M0.066,-0.123C0.066,-0.078 0.079,-0.047 0.104,-0.028C0.128,-0.009 0.159,-0 0.196,-0L0.241,-0L0.241,-0.096L0.206,-0.096C0.181,-0.096 0.168,-0.108 0.168,-0.131L0.168,-0.712L0.066,-0.712L0.066,-0.123Z" style="fill:white;fill-rule:nonzero;"/>
                    </g>
                    <g transform="matrix(24,0,0,24,171.175,578.898)">
                        <path d="M0.332,-0L0.434,-0L0.434,-0.346C0.433,-0.408 0.414,-0.452 0.376,-0.477C0.338,-0.502 0.287,-0.514 0.223,-0.513C0.148,-0.514 0.09,-0.49 0.052,-0.439L0.132,-0.378C0.141,-0.393 0.153,-0.403 0.168,-0.409C0.183,-0.414 0.203,-0.417 0.228,-0.417C0.298,-0.418 0.333,-0.397 0.332,-0.352L0.332,-0.299L0.191,-0.299C0.137,-0.298 0.096,-0.284 0.068,-0.255C0.04,-0.227 0.026,-0.192 0.026,-0.149C0.026,-0.104 0.042,-0.068 0.074,-0.039C0.105,-0.01 0.148,0.005 0.205,0.006C0.24,0.006 0.267,0.002 0.286,-0.007C0.306,-0.015 0.321,-0.028 0.33,-0.045L0.332,-0.045L0.332,-0ZM0.332,-0.178C0.332,-0.14 0.324,-0.116 0.308,-0.105C0.291,-0.094 0.26,-0.089 0.218,-0.09C0.184,-0.09 0.16,-0.097 0.145,-0.11C0.13,-0.122 0.122,-0.137 0.122,-0.154C0.121,-0.193 0.151,-0.214 0.21,-0.215L0.332,-0.215L0.332,-0.178Z" style="fill:white;fill-rule:nonzero;"/>
                    </g>
                    <g transform="matrix(24,0,0,24,183.175,578.898)">
                        <path d="M0.364,-0.149C0.338,-0.114 0.304,-0.097 0.261,-0.096C0.174,-0.095 0.13,-0.147 0.129,-0.253C0.13,-0.36 0.174,-0.412 0.261,-0.411C0.304,-0.41 0.338,-0.392 0.364,-0.358L0.439,-0.425C0.417,-0.451 0.391,-0.473 0.361,-0.489C0.331,-0.504 0.296,-0.513 0.257,-0.513C0.197,-0.514 0.144,-0.494 0.099,-0.453C0.052,-0.412 0.028,-0.345 0.027,-0.253C0.028,-0.162 0.052,-0.096 0.099,-0.055C0.144,-0.014 0.197,0.006 0.257,0.006C0.296,0.005 0.331,-0.003 0.361,-0.02C0.391,-0.036 0.417,-0.057 0.439,-0.082L0.364,-0.149Z" style="fill:white;fill-rule:nonzero;"/>
                    </g>
                    <g transform="matrix(24,0,0,24,193.828,578.898)">
                        <path d="M0.066,-0L0.168,-0L0.168,-0.146L0.248,-0.237L0.383,-0L0.511,-0L0.312,-0.309L0.487,-0.507L0.365,-0.507L0.17,-0.269L0.168,-0.269L0.168,-0.712L0.066,-0.712L0.066,-0Z" style="fill:white;fill-rule:nonzero;"/>
                    </g>
                </g>
            </g>
            <g transform="matrix(1,0,0,1,324.732,6.38793)">
                <path d="M282.853,252.095L282.853,242.508L378.717,242.508L378.717,233.607L392.412,247.302L378.717,260.996L378.717,252.095L282.853,252.095Z" style="fill:rgb(254,179,212);"/>
            </g>
            <g transform="matrix(-0.0892453,2.11227,-0.999109,-0.0422132,1116.32,-260.83)">
                <path d="M282.853,252.095L282.853,242.508L385.935,242.508L385.935,233.607L392.412,247.302L385.935,260.996L385.935,252.095L282.853,252.095Z" style="fill:rgb(254,179,212);"/>
            </g>
            <g transform="matrix(1,0,0,1,1.52898,8.09005)">
                <path d="M282.853,252.095L282.853,242.508L378.717,242.508L378.717,233.607L392.412,247.302L378.717,260.996L378.717,252.095L282.853,252.095Z" style="fill:rgb(254,179,212);"/>
            </g>
            <g transform="matrix(1,0,0,1,-133.919,-276.031)">
                <g transform="matrix(1.22393,0,0,1,468.872,419.014)">
                    <rect x="194.635" y="207.681" width="158.309" height="105.173" style="fill:rgb(183,224,208);"/>
                </g>
                <g transform="matrix(2.42517,0,0,2.42517,385.9,-703.937)">
                    <g transform="matrix(24,0,0,24,151.218,578.898)">
                        <path d="M0.441,-0.199C0.411,-0.134 0.366,-0.102 0.305,-0.102C0.28,-0.102 0.258,-0.107 0.24,-0.118C0.221,-0.127 0.206,-0.139 0.195,-0.154C0.181,-0.169 0.172,-0.189 0.167,-0.214C0.162,-0.239 0.159,-0.286 0.159,-0.356C0.159,-0.426 0.162,-0.474 0.167,-0.499C0.172,-0.523 0.181,-0.543 0.195,-0.558C0.206,-0.573 0.221,-0.585 0.24,-0.595C0.258,-0.604 0.28,-0.609 0.305,-0.61C0.34,-0.609 0.369,-0.599 0.393,-0.58C0.416,-0.56 0.432,-0.535 0.441,-0.507L0.555,-0.507C0.544,-0.566 0.516,-0.616 0.473,-0.657C0.43,-0.697 0.374,-0.717 0.305,-0.718C0.249,-0.717 0.202,-0.704 0.165,-0.678C0.127,-0.652 0.099,-0.623 0.082,-0.59C0.071,-0.573 0.063,-0.55 0.058,-0.522C0.053,-0.494 0.051,-0.439 0.051,-0.356C0.051,-0.275 0.053,-0.22 0.058,-0.191C0.061,-0.176 0.064,-0.163 0.068,-0.153C0.072,-0.143 0.077,-0.133 0.082,-0.122C0.099,-0.089 0.127,-0.06 0.165,-0.035C0.202,-0.009 0.249,0.005 0.305,0.006C0.367,0.006 0.421,-0.012 0.466,-0.047C0.51,-0.082 0.54,-0.133 0.555,-0.199L0.441,-0.199Z" style="fill:white;fill-rule:nonzero;"/>
                    </g>
                    <g transform="matrix(24,0,0,24,164.566,578.898)">
                        <path d="M0.075,-0L0.183,-0L0.183,-0.444L0.185,-0.444L0.334,-0.102L0.424,-0.102L0.573,-0.444L0.575,-0.444L0.575,-0L0.683,-0L0.683,-0.712L0.581,-0.712L0.381,-0.248L0.177,-0.712L0.075,-0.712L0.075,-0Z" style="fill:white;fill-rule:nonzero;"/>
                    </g>
                    <g transform="matrix(24,0,0,24,182.754,578.898)">
                        <path d="M0.084,-0.173L0.013,-0.092C0.089,-0.027 0.18,0.006 0.285,0.006C0.448,0.004 0.532,-0.065 0.535,-0.201C0.535,-0.252 0.519,-0.296 0.488,-0.334C0.456,-0.373 0.407,-0.397 0.34,-0.406C0.306,-0.41 0.279,-0.414 0.26,-0.417C0.225,-0.424 0.199,-0.435 0.183,-0.452C0.167,-0.469 0.159,-0.487 0.159,-0.508C0.16,-0.542 0.172,-0.568 0.195,-0.585C0.217,-0.602 0.245,-0.61 0.278,-0.61C0.342,-0.609 0.401,-0.59 0.454,-0.555L0.514,-0.644C0.449,-0.691 0.372,-0.716 0.283,-0.718C0.21,-0.717 0.153,-0.698 0.113,-0.66C0.071,-0.622 0.051,-0.572 0.051,-0.51C0.051,-0.458 0.067,-0.414 0.1,-0.378C0.132,-0.343 0.179,-0.32 0.24,-0.31C0.274,-0.305 0.305,-0.301 0.334,-0.297C0.396,-0.286 0.427,-0.254 0.427,-0.201C0.425,-0.136 0.379,-0.103 0.286,-0.102C0.208,-0.103 0.141,-0.126 0.084,-0.173Z" style="fill:white;fill-rule:nonzero;"/>
                    </g>
                </g>
            </g>
            <g transform="matrix(1,0,0,1,563.522,-445.119)">
                <circle cx="191.052" cy="605.89" r="29.904" style="fill:rgb(249,221,78);"/>
                <circle cx="191.052" cy="605.89" r="29.904" style="fill:rgb(249,221,78);"/>
                <g transform="matrix(2.07984,0,0,1.78837,-197.047,-446.86)">
                    <g transform="matrix(37.5634,0,0,37.5634,181.931,602.383)">
                        <path d="M0.103,-0.176L0.154,-0.176L0.193,-0.712L0.065,-0.712L0.103,-0.176ZM0.078,-0L0.18,-0L0.18,-0.102L0.078,-0.102L0.078,-0Z" style="fill:rgb(221,124,93);fill-rule:nonzero;"/>
                    </g>
                </g>
            </g>
            <g transform="matrix(1,0,0,1,571.031,-159.015)">
                <circle cx="191.052" cy="605.89" r="29.904" style="fill:rgb(249,221,78);"/>
                <circle cx="191.052" cy="605.89" r="29.904" style="fill:rgb(249,221,78);"/>
                <g transform="matrix(2.07984,0,0,1.78837,-197.047,-446.86)">
                    <g transform="matrix(37.5634,0,0,37.5634,181.931,602.383)">
                        <path d="M0.103,-0.176L0.154,-0.176L0.193,-0.712L0.065,-0.712L0.103,-0.176ZM0.078,-0L0.18,-0L0.18,-0.102L0.078,-0.102L0.078,-0Z" style="fill:rgb(221,124,93);fill-rule:nonzero;"/>
                    </g>
                </g>
            </g>
            <g transform="matrix(1,0,0,1,853.588,-117.653)">
                <circle cx="191.052" cy="605.89" r="29.904" style="fill:rgb(249,221,78);"/>
                <circle cx="191.052" cy="605.89" r="29.904" style="fill:rgb(249,221,78);"/>
                <g transform="matrix(2.07984,0,0,1.78837,-197.047,-446.86)">
                    <g transform="matrix(37.5634,0,0,37.5634,181.931,602.383)">
                        <path d="M0.103,-0.176L0.154,-0.176L0.193,-0.712L0.065,-0.712L0.103,-0.176ZM0.078,-0L0.18,-0L0.18,-0.102L0.078,-0.102L0.078,-0Z" style="fill:rgb(221,124,93);fill-rule:nonzero;"/>
                    </g>
                </g>
            </g>
        </g>
    </g>
</svg>
